<svg width="45" height="46" viewBox="0 0 45 46" fill="none" xmlns="http://www.w3.org/2000/svg">
<path fill-rule="evenodd" clip-rule="evenodd" d="M43.3771 0.5C31.8121 0.512857 21.9893 6.87393 14.9789 13.3571H1.62033L0.0131836 14.9643V24.6071L0.485684 25.745L3.67104 28.9304L3.67426 28.9593L16.5314 41.8164L16.5603 41.8196L19.7714 45.0307L20.906 45.5H30.5489L32.156 43.8929V30.5407C38.6457 23.54 45.0003 13.7204 44.9875 2.10714L43.3771 0.5ZM3.22747 16.5714H11.7228C9.12821 19.2954 6.73781 22.2069 4.57104 25.2821L3.22747 23.945V16.5714ZM21.5489 42.2857L20.1989 40.9261C23.2804 38.7714 26.1974 36.3906 28.9257 33.8032V42.2857H21.5489ZM17.875 38.6086L6.8789 27.6189C10.0675 23 23.7314 4.85536 41.7282 3.76571C40.6803 21.8043 22.4843 35.4361 17.875 38.6086ZM9.65604 45.5V42.2857H3.22747V35.8571H0.0131836V45.5H9.65604ZM31.346 20.8561C32.0562 19.7922 32.3146 18.4898 32.0644 17.2353C31.8142 15.9809 31.076 14.8773 30.0121 14.1671C28.9482 13.457 27.6458 13.1986 26.3914 13.4488C25.137 13.6989 24.0333 14.4372 23.3232 15.5011C22.6131 16.5645 22.3545 17.8665 22.6044 19.1207C22.8542 20.3748 23.592 21.4783 24.6555 22.1884C25.719 22.8985 27.021 23.1571 28.2751 22.9072C29.5292 22.6574 30.6327 21.9195 31.3428 20.8561H31.346Z" fill="#1ED760"/>
</svg>
